<?xml version="1.0" standalone="no"?>
<!DOCTYPE svg PUBLIC "-//W3C//DTD SVG 20010904//EN"
 "http://www.w3.org/TR/2001/REC-SVG-20010904/DTD/svg10.dtd">
<svg version="1.0" xmlns="http://www.w3.org/2000/svg"
 width="167.000000pt" height="167.000000pt" viewBox="0 0 167.000000 167.000000"
 preserveAspectRatio="xMidYMid meet">
<metadata>
Created by potrace 1.11, written by Peter Selinger 2001-2013
</metadata>
<g transform="translate(0.000000,167.000000) scale(0.100000,-0.100000)"
fill="#000000" stroke="none">
<path d="M12 1168 c3 -486 4 -494 27 -563 93 -277 275 -464 541 -557 l95 -33
492 -3 493 -3 0 461 c0 504 -3 543 -59 678 -93 225 -272 390 -512 474 l-94 33
-493 3 -493 3 3 -493z m1000 -95 c19 -43 50 -113 69 -155 19 -43 36 -78 39
-78 4 0 37 70 75 155 l69 155 88 0 c84 0 88 -1 89 -22 0 -27 0 -531 0 -570
l-1 -28 -75 0 -75 0 0 207 c0 122 -4 203 -9 198 -5 -6 -32 -65 -61 -132 l-52
-123 -53 0 -52 0 -53 125 c-29 69 -57 125 -61 125 -5 0 -9 -90 -9 -200 l0
-200 -70 0 -70 0 0 48 c-1 66 -1 489 -1 535 l1 37 88 0 89 0 35 -77z m-429
-96 c67 -40 95 -110 88 -219 -1 -16 -16 -18 -172 -18 l-171 0 7 -27 c9 -38 41
-70 83 -84 47 -15 138 -6 192 20 24 11 48 21 52 21 5 0 8 -26 6 -57 l-3 -58
-65 -17 c-123 -32 -260 -15 -330 40 -104 83 -110 273 -12 366 75 70 234 86
325 33z"/>
<path d="M366 898 c-14 -13 -28 -35 -32 -50 l-6 -28 101 0 c100 0 101 0 101
24 0 13 -9 35 -21 50 -28 35 -105 37 -143 4z"/>
</g>
</svg>
